<svg xmlns="http://www.w3.org/2000/svg" viewBox="0 0 22.99 25" x="0px" y="0px"><title>heart 1</title><g data-name="Layer 2"><g data-name="Layer 1"><path d="M11.51,20a.5.5,0,0,1-.36-.15L1.73,10.27a6.09,6.09,0,0,1,0-8.5A5.84,5.84,0,0,1,5.92,0h0a5.84,5.84,0,0,1,4.19,1.76L11.5,3.18l1.38-1.41A5.84,5.84,0,0,1,17.07,0h0a5.84,5.84,0,0,1,4.19,1.76,6.09,6.09,0,0,1,0,8.5l-9.41,9.59a.5.5,0,0,1-.36.15ZM5.92,1h0A4.84,4.84,0,0,0,2.44,2.47a5.09,5.09,0,0,0,0,7.1l9.06,9.22,9-9.22a5.09,5.09,0,0,0,0-7.1A4.85,4.85,0,0,0,17.07,1h0a4.85,4.85,0,0,0-3.48,1.47L11.86,4.24a.5.5,0,0,1-.36.15h0a.5.5,0,0,1-.36-.15L9.4,2.47A4.85,4.85,0,0,0,5.92,1Z"/></g></g><text x="0" y="35" fill="#000000" font-size="5px" font-weight="bold" font-family="'Helvetica Neue', Helvetica, Arial-Unicode, Arial, Sans-serif">Created by Makarenko Andrey</text><text x="0" y="40" fill="#000000" font-size="5px" font-weight="bold" font-family="'Helvetica Neue', Helvetica, Arial-Unicode, Arial, Sans-serif">from the Noun Project</text></svg>